<mxfile host="app.diagrams.net" modified="2023-05-27T11:02:16.472Z" agent="Mozilla/5.0 (X11; Linux x86_64) AppleWebKit/537.36 (KHTML, like Gecko) Chrome/113.0.0.0 Safari/537.36" etag="PXNW6e7CtqBCFTO7potL" version="21.3.3" type="device">
  <diagram id="6a731a19-8d31-9384-78a2-239565b7b9f0" name="Page-1">
    <mxGraphModel dx="1644" dy="926" grid="1" gridSize="10" guides="1" tooltips="1" connect="1" arrows="1" fold="1" page="1" pageScale="1" pageWidth="1169" pageHeight="827" background="none" math="0" shadow="0">
      <root>
        <mxCell id="0" />
        <mxCell id="1" parent="0" />
        <mxCell id="1749" value="&lt;font style=&quot;font-size: 25px;&quot; color=&quot;#000066&quot;&gt;Front End&lt;/font&gt;" style="rounded=1;whiteSpace=wrap;html=1;shadow=0;labelBackgroundColor=none;strokeColor=#10739e;strokeWidth=3;fillColor=#b1ddf0;fontFamily=Helvetica;fontSize=16;align=center;fontStyle=1;spacing=5;arcSize=7;perimeterSpacing=2;" parent="1" vertex="1">
          <mxGeometry x="480" y="44" width="210" height="66" as="geometry" />
        </mxCell>
        <mxCell id="PcMzKkUMm2d5BPdkekdi-1781" value="" style="endArrow=none;html=1;rounded=0;strokeWidth=3;fillColor=#b1ddf0;strokeColor=#10739e;exitX=0.949;exitY=0.971;exitDx=0;exitDy=0;exitPerimeter=0;" parent="1" source="1749" target="PcMzKkUMm2d5BPdkekdi-1787" edge="1">
          <mxGeometry width="50" height="50" relative="1" as="geometry">
            <mxPoint x="660" y="110" as="sourcePoint" />
            <mxPoint x="800" y="200" as="targetPoint" />
          </mxGeometry>
        </mxCell>
        <mxCell id="PcMzKkUMm2d5BPdkekdi-1782" value="" style="endArrow=none;html=1;rounded=0;strokeWidth=3;fillColor=#b1ddf0;strokeColor=#10739e;entryX=0;entryY=1;entryDx=0;entryDy=0;" parent="1" source="PcMzKkUMm2d5BPdkekdi-1785" target="1749" edge="1">
          <mxGeometry width="50" height="50" relative="1" as="geometry">
            <mxPoint x="360" y="200" as="sourcePoint" />
            <mxPoint x="510" y="111" as="targetPoint" />
          </mxGeometry>
        </mxCell>
        <mxCell id="PcMzKkUMm2d5BPdkekdi-1784" value="" style="endArrow=none;html=1;rounded=0;strokeWidth=3;fillColor=#b1ddf0;strokeColor=#10739e;entryX=0.5;entryY=1;entryDx=0;entryDy=0;" parent="1" target="1749" edge="1">
          <mxGeometry width="50" height="50" relative="1" as="geometry">
            <mxPoint x="585" y="200" as="sourcePoint" />
            <mxPoint x="520" y="121" as="targetPoint" />
          </mxGeometry>
        </mxCell>
        <mxCell id="PcMzKkUMm2d5BPdkekdi-1785" value="HTML" style="rounded=1;whiteSpace=wrap;html=1;shadow=0;labelBackgroundColor=none;strokeColor=none;strokeWidth=3;fillColor=#12aab5;fontFamily=Helvetica;fontSize=14;fontColor=#FFFFFF;align=center;spacing=5;fontStyle=1;arcSize=7;perimeterSpacing=2;" parent="1" vertex="1">
          <mxGeometry x="220" y="194.4999999999999" width="150" height="60" as="geometry" />
        </mxCell>
        <mxCell id="PcMzKkUMm2d5BPdkekdi-1787" value="JavaScript" style="rounded=1;whiteSpace=wrap;html=1;shadow=0;labelBackgroundColor=none;strokeColor=none;strokeWidth=3;fillColor=#12aab5;fontFamily=Helvetica;fontSize=14;fontColor=#FFFFFF;align=center;spacing=5;fontStyle=1;arcSize=7;perimeterSpacing=2;" parent="1" vertex="1">
          <mxGeometry x="890" y="195.9999999999999" width="150" height="60" as="geometry" />
        </mxCell>
        <mxCell id="PcMzKkUMm2d5BPdkekdi-1788" value="" style="endArrow=none;html=1;rounded=0;strokeWidth=3;fillColor=#b1ddf0;strokeColor=#10739e;entryX=0.5;entryY=1;entryDx=0;entryDy=0;exitX=0.5;exitY=0;exitDx=0;exitDy=0;" parent="1" source="PcMzKkUMm2d5BPdkekdi-1795" edge="1">
          <mxGeometry width="50" height="50" relative="1" as="geometry">
            <mxPoint x="584.5" y="338.5" as="sourcePoint" />
            <mxPoint x="584.5" y="254.5" as="targetPoint" />
          </mxGeometry>
        </mxCell>
        <mxCell id="PcMzKkUMm2d5BPdkekdi-1789" value="" style="endArrow=none;html=1;rounded=0;strokeWidth=3;fillColor=#b1ddf0;strokeColor=#10739e;exitX=0.75;exitY=0;exitDx=0;exitDy=0;" parent="1" source="PcMzKkUMm2d5BPdkekdi-1792" edge="1">
          <mxGeometry width="50" height="50" relative="1" as="geometry">
            <mxPoint x="380" y="339" as="sourcePoint" />
            <mxPoint x="530" y="250" as="targetPoint" />
          </mxGeometry>
        </mxCell>
        <mxCell id="PcMzKkUMm2d5BPdkekdi-1790" value="" style="endArrow=none;html=1;rounded=0;strokeWidth=3;fillColor=#b1ddf0;strokeColor=#10739e;" parent="1" target="PcMzKkUMm2d5BPdkekdi-1797" edge="1">
          <mxGeometry width="50" height="50" relative="1" as="geometry">
            <mxPoint x="660" y="250" as="sourcePoint" />
            <mxPoint x="800" y="340" as="targetPoint" />
          </mxGeometry>
        </mxCell>
        <mxCell id="PcMzKkUMm2d5BPdkekdi-1791" value="CSS" style="rounded=1;whiteSpace=wrap;html=1;shadow=0;labelBackgroundColor=none;strokeColor=none;strokeWidth=3;fillColor=#12aab5;fontFamily=Helvetica;fontSize=14;fontColor=#FFFFFF;align=center;spacing=5;fontStyle=1;arcSize=7;perimeterSpacing=2;" parent="1" vertex="1">
          <mxGeometry x="520" y="195.9999999999999" width="150" height="60" as="geometry" />
        </mxCell>
        <mxCell id="PcMzKkUMm2d5BPdkekdi-1792" value="&lt;font color=&quot;#000066&quot;&gt;CSS Library&lt;/font&gt;" style="swimlane;whiteSpace=wrap;html=1;strokeWidth=3;fillColor=#d0cee2;strokeColor=#56517e;startSize=23;" parent="1" vertex="1">
          <mxGeometry x="150" y="360" width="200" height="70" as="geometry" />
        </mxCell>
        <mxCell id="PcMzKkUMm2d5BPdkekdi-1806" value="&lt;font color=&quot;#00009c&quot;&gt;Pure CSS&lt;/font&gt;" style="text;html=1;align=center;verticalAlign=middle;resizable=0;points=[];autosize=1;strokeColor=none;fillColor=none;fontStyle=1" parent="PcMzKkUMm2d5BPdkekdi-1792" vertex="1">
          <mxGeometry y="30" width="80" height="30" as="geometry" />
        </mxCell>
        <mxCell id="PcMzKkUMm2d5BPdkekdi-1795" value="&lt;font color=&quot;#000066&quot;&gt;CSS Frameworks&lt;/font&gt;" style="swimlane;whiteSpace=wrap;html=1;strokeWidth=3;fillColor=#d0cee2;strokeColor=#56517e;" parent="1" vertex="1">
          <mxGeometry x="483" y="360" width="205" height="130" as="geometry" />
        </mxCell>
        <mxCell id="PcMzKkUMm2d5BPdkekdi-1801" value="&lt;font color=&quot;#00009c&quot;&gt;Bootstrap&lt;/font&gt;" style="text;html=1;align=center;verticalAlign=middle;resizable=0;points=[];autosize=1;strokeColor=none;fillColor=none;fontStyle=1" parent="PcMzKkUMm2d5BPdkekdi-1795" vertex="1">
          <mxGeometry x="12" y="30" width="80" height="30" as="geometry" />
        </mxCell>
        <mxCell id="PcMzKkUMm2d5BPdkekdi-1802" value="&lt;font color=&quot;#00009c&quot;&gt;Bulma&lt;br&gt;&lt;br&gt;&lt;/font&gt;" style="text;html=1;align=left;verticalAlign=middle;resizable=0;points=[];autosize=1;strokeColor=none;fillColor=none;fontStyle=1" parent="PcMzKkUMm2d5BPdkekdi-1795" vertex="1">
          <mxGeometry x="22" y="54" width="60" height="40" as="geometry" />
        </mxCell>
        <mxCell id="PcMzKkUMm2d5BPdkekdi-1805" value="&lt;font color=&quot;#00009c&quot;&gt;Tailwind CSS&lt;br&gt;&lt;br&gt;&lt;/font&gt;" style="text;html=1;align=left;verticalAlign=middle;resizable=0;points=[];autosize=1;strokeColor=none;fillColor=none;fontStyle=1" parent="PcMzKkUMm2d5BPdkekdi-1795" vertex="1">
          <mxGeometry x="22" y="95" width="100" height="40" as="geometry" />
        </mxCell>
        <mxCell id="PcMzKkUMm2d5BPdkekdi-1797" value="&lt;font color=&quot;#000066&quot;&gt;Css Preprocesor&lt;/font&gt;" style="swimlane;whiteSpace=wrap;html=1;strokeWidth=3;fillColor=#d0cee2;strokeColor=#56517e;" parent="1" vertex="1">
          <mxGeometry x="740" y="360" width="200" height="80" as="geometry" />
        </mxCell>
        <mxCell id="PcMzKkUMm2d5BPdkekdi-1798" value="&lt;font color=&quot;#00009c&quot;&gt;SASS&lt;/font&gt;" style="text;html=1;align=center;verticalAlign=middle;resizable=0;points=[];autosize=1;strokeColor=none;fillColor=none;fontStyle=1" parent="PcMzKkUMm2d5BPdkekdi-1797" vertex="1">
          <mxGeometry x="5" y="30" width="60" height="30" as="geometry" />
        </mxCell>
        <mxCell id="PcMzKkUMm2d5BPdkekdi-1800" value="&lt;font color=&quot;#00009c&quot;&gt;LESS&lt;/font&gt;" style="text;html=1;align=center;verticalAlign=middle;resizable=0;points=[];autosize=1;strokeColor=none;fillColor=none;fontStyle=1" parent="PcMzKkUMm2d5BPdkekdi-1797" vertex="1">
          <mxGeometry x="11" y="50" width="50" height="30" as="geometry" />
        </mxCell>
        <mxCell id="PcMzKkUMm2d5BPdkekdi-1804" value="&lt;font color=&quot;#00009c&quot;&gt;Semantik UI&lt;br&gt;&lt;/font&gt;" style="text;html=1;align=left;verticalAlign=middle;resizable=0;points=[];autosize=1;strokeColor=none;fillColor=none;fontStyle=1" parent="1" vertex="1">
          <mxGeometry x="505" y="434" width="90" height="30" as="geometry" />
        </mxCell>
        <mxCell id="PcMzKkUMm2d5BPdkekdi-1807" value="" style="endArrow=none;html=1;rounded=0;strokeWidth=3;fillColor=#b1ddf0;strokeColor=#10739e;exitX=0.5;exitY=1;exitDx=0;exitDy=0;" parent="1" source="PcMzKkUMm2d5BPdkekdi-1787" edge="1">
          <mxGeometry width="50" height="50" relative="1" as="geometry">
            <mxPoint x="830" y="273" as="sourcePoint" />
            <mxPoint x="970" y="560" as="targetPoint" />
          </mxGeometry>
        </mxCell>
        <mxCell id="PcMzKkUMm2d5BPdkekdi-1808" value="" style="endArrow=none;html=1;rounded=0;strokeWidth=3;fillColor=#b1ddf0;strokeColor=#10739e;entryX=1;entryY=0;entryDx=0;entryDy=0;" parent="1" target="PcMzKkUMm2d5BPdkekdi-1818" edge="1">
          <mxGeometry width="50" height="50" relative="1" as="geometry">
            <mxPoint x="970" y="560" as="sourcePoint" />
            <mxPoint x="310" y="560" as="targetPoint" />
          </mxGeometry>
        </mxCell>
        <mxCell id="PcMzKkUMm2d5BPdkekdi-1809" value="" style="endArrow=none;html=1;rounded=0;strokeWidth=3;fillColor=#b1ddf0;strokeColor=#10739e;entryX=1;entryY=0;entryDx=0;entryDy=0;" parent="1" target="PcMzKkUMm2d5BPdkekdi-1814" edge="1">
          <mxGeometry width="50" height="50" relative="1" as="geometry">
            <mxPoint x="970" y="560" as="sourcePoint" />
            <mxPoint x="440" y="640" as="targetPoint" />
          </mxGeometry>
        </mxCell>
        <mxCell id="PcMzKkUMm2d5BPdkekdi-1810" value="" style="endArrow=none;html=1;rounded=0;strokeWidth=3;fillColor=#b1ddf0;strokeColor=#10739e;" parent="1" edge="1">
          <mxGeometry width="50" height="50" relative="1" as="geometry">
            <mxPoint x="960" y="560" as="sourcePoint" />
            <mxPoint x="670" y="640" as="targetPoint" />
          </mxGeometry>
        </mxCell>
        <mxCell id="PcMzKkUMm2d5BPdkekdi-1811" value="" style="endArrow=none;html=1;rounded=0;strokeWidth=3;fillColor=#b1ddf0;strokeColor=#10739e;" parent="1" edge="1">
          <mxGeometry width="50" height="50" relative="1" as="geometry">
            <mxPoint x="970" y="660" as="sourcePoint" />
            <mxPoint x="970" y="560" as="targetPoint" />
          </mxGeometry>
        </mxCell>
        <mxCell id="PcMzKkUMm2d5BPdkekdi-1812" value="&lt;font color=&quot;#5e5126&quot;&gt;TypeScript&lt;/font&gt;" style="rounded=1;whiteSpace=wrap;html=1;shadow=0;labelBackgroundColor=none;strokeColor=#d6b656;strokeWidth=3;fillColor=#fff2cc;fontFamily=Helvetica;fontSize=14;align=center;spacing=5;fontStyle=1;arcSize=7;perimeterSpacing=2;gradientColor=#ffd966;" parent="1" vertex="1">
          <mxGeometry x="900" y="639.9999999999999" width="150" height="60" as="geometry" />
        </mxCell>
        <mxCell id="PcMzKkUMm2d5BPdkekdi-1813" value="&lt;font color=&quot;#5e5126&quot;&gt;ES6&lt;/font&gt;" style="rounded=1;whiteSpace=wrap;html=1;shadow=0;labelBackgroundColor=none;strokeColor=#d6b656;strokeWidth=3;fillColor=#fff2cc;fontFamily=Helvetica;fontSize=14;align=center;spacing=5;fontStyle=1;arcSize=7;perimeterSpacing=2;gradientColor=#ffd966;" parent="1" vertex="1">
          <mxGeometry x="595" y="639.9999999999999" width="150" height="60" as="geometry" />
        </mxCell>
        <mxCell id="PcMzKkUMm2d5BPdkekdi-1814" value="&lt;font color=&quot;#000066&quot;&gt;JS Frameworks&lt;/font&gt;" style="swimlane;whiteSpace=wrap;html=1;strokeWidth=3;fillColor=#d0cee2;strokeColor=#56517e;" parent="1" vertex="1">
          <mxGeometry x="330" y="600" width="205" height="110" as="geometry" />
        </mxCell>
        <mxCell id="PcMzKkUMm2d5BPdkekdi-1815" value="&lt;font color=&quot;#00009c&quot;&gt;AngularJS&lt;br&gt;&lt;/font&gt;" style="text;html=1;align=center;verticalAlign=middle;resizable=0;points=[];autosize=1;strokeColor=none;fillColor=none;fontStyle=1" parent="PcMzKkUMm2d5BPdkekdi-1814" vertex="1">
          <mxGeometry x="12" y="30" width="80" height="30" as="geometry" />
        </mxCell>
        <mxCell id="PcMzKkUMm2d5BPdkekdi-1816" value="&lt;font color=&quot;#00009c&quot;&gt;ReactJS&lt;br&gt;&lt;br&gt;&lt;/font&gt;" style="text;html=1;align=left;verticalAlign=middle;resizable=0;points=[];autosize=1;strokeColor=none;fillColor=none;fontStyle=1" parent="PcMzKkUMm2d5BPdkekdi-1814" vertex="1">
          <mxGeometry x="22" y="54" width="70" height="40" as="geometry" />
        </mxCell>
        <mxCell id="PcMzKkUMm2d5BPdkekdi-1817" value="&lt;font color=&quot;#00009c&quot;&gt;Vue.js&lt;br&gt;&lt;br&gt;&lt;/font&gt;" style="text;html=1;align=left;verticalAlign=middle;resizable=0;points=[];autosize=1;strokeColor=none;fillColor=none;fontStyle=1" parent="PcMzKkUMm2d5BPdkekdi-1814" vertex="1">
          <mxGeometry x="22" y="80" width="60" height="40" as="geometry" />
        </mxCell>
        <mxCell id="PcMzKkUMm2d5BPdkekdi-1818" value="&lt;font color=&quot;#000066&quot;&gt;Package Manager&lt;/font&gt;" style="swimlane;whiteSpace=wrap;html=1;strokeWidth=3;fillColor=#d0cee2;strokeColor=#56517e;" parent="1" vertex="1">
          <mxGeometry x="100" y="560" width="205" height="90" as="geometry" />
        </mxCell>
        <mxCell id="PcMzKkUMm2d5BPdkekdi-1819" value="&lt;font color=&quot;#00009c&quot;&gt;npm&lt;br&gt;&lt;/font&gt;" style="text;html=1;align=center;verticalAlign=middle;resizable=0;points=[];autosize=1;strokeColor=none;fillColor=none;fontStyle=1" parent="PcMzKkUMm2d5BPdkekdi-1818" vertex="1">
          <mxGeometry x="11" y="30" width="50" height="30" as="geometry" />
        </mxCell>
        <mxCell id="PcMzKkUMm2d5BPdkekdi-1820" value="&lt;font color=&quot;#00009c&quot;&gt;yam&lt;br&gt;&lt;br&gt;&lt;/font&gt;" style="text;html=1;align=left;verticalAlign=middle;resizable=0;points=[];autosize=1;strokeColor=none;fillColor=none;fontStyle=1" parent="PcMzKkUMm2d5BPdkekdi-1818" vertex="1">
          <mxGeometry x="22" y="54" width="50" height="40" as="geometry" />
        </mxCell>
      </root>
    </mxGraphModel>
  </diagram>
</mxfile>
